<mxfile host="app.diagrams.net" agent="Mozilla/5.0 (Windows NT 10.0; Win64; x64) AppleWebKit/537.36 (KHTML, like Gecko) Chrome/135.0.0.0 Safari/537.36" version="26.2.12">
  <diagram name="Página-1" id="Xd6_OP_jHK2QUGCBGwS0">
    <mxGraphModel dx="1113" dy="535" grid="1" gridSize="10" guides="1" tooltips="1" connect="1" arrows="1" fold="1" page="1" pageScale="1" pageWidth="827" pageHeight="1169" math="0" shadow="0">
      <root>
        <mxCell id="0" />
        <mxCell id="1" parent="0" />
        <mxCell id="grPSCO9Au6a3i4jl9AI7-11" style="edgeStyle=none;curved=1;rounded=0;orthogonalLoop=1;jettySize=auto;html=1;fontSize=12;startSize=8;endSize=8;" edge="1" parent="1" source="qkaiT1lPAwDD_iMK0FRB-1">
          <mxGeometry relative="1" as="geometry">
            <mxPoint x="250" y="120" as="targetPoint" />
          </mxGeometry>
        </mxCell>
        <mxCell id="grPSCO9Au6a3i4jl9AI7-12" style="edgeStyle=none;curved=1;rounded=0;orthogonalLoop=1;jettySize=auto;html=1;fontSize=12;startSize=8;endSize=8;" edge="1" parent="1" source="qkaiT1lPAwDD_iMK0FRB-1" target="grPSCO9Au6a3i4jl9AI7-7">
          <mxGeometry relative="1" as="geometry" />
        </mxCell>
        <mxCell id="qkaiT1lPAwDD_iMK0FRB-1" value="Itens para compra" style="rounded=0;whiteSpace=wrap;html=1;" parent="1" vertex="1">
          <mxGeometry x="60" y="40" width="120" height="60" as="geometry" />
        </mxCell>
        <mxCell id="grPSCO9Au6a3i4jl9AI7-2" value="" style="curved=1;endArrow=classic;html=1;rounded=0;fontSize=12;startSize=8;endSize=8;" edge="1" parent="1">
          <mxGeometry width="50" height="50" relative="1" as="geometry">
            <mxPoint x="180" y="80" as="sourcePoint" />
            <mxPoint x="230" y="30" as="targetPoint" />
            <Array as="points">
              <mxPoint x="230" y="80" />
              <mxPoint x="180" y="30" />
            </Array>
          </mxGeometry>
        </mxCell>
        <mxCell id="grPSCO9Au6a3i4jl9AI7-4" value="TEXTOS" style="rounded=1;whiteSpace=wrap;html=1;" vertex="1" parent="1">
          <mxGeometry x="230" width="70" height="30" as="geometry" />
        </mxCell>
        <mxCell id="grPSCO9Au6a3i4jl9AI7-6" value="" style="endArrow=classic;html=1;rounded=0;fontSize=12;startSize=8;endSize=8;curved=1;" edge="1" parent="1">
          <mxGeometry width="50" height="50" relative="1" as="geometry">
            <mxPoint x="210" y="69.5" as="sourcePoint" />
            <mxPoint x="260" y="69.5" as="targetPoint" />
          </mxGeometry>
        </mxCell>
        <mxCell id="grPSCO9Au6a3i4jl9AI7-7" value="IMAGENS" style="rounded=1;whiteSpace=wrap;html=1;" vertex="1" parent="1">
          <mxGeometry x="260" y="55" width="80" height="30" as="geometry" />
        </mxCell>
        <mxCell id="grPSCO9Au6a3i4jl9AI7-15" style="edgeStyle=none;curved=1;rounded=0;orthogonalLoop=1;jettySize=auto;html=1;fontSize=12;startSize=8;endSize=8;" edge="1" parent="1" source="grPSCO9Au6a3i4jl9AI7-13" target="grPSCO9Au6a3i4jl9AI7-14">
          <mxGeometry relative="1" as="geometry" />
        </mxCell>
        <mxCell id="grPSCO9Au6a3i4jl9AI7-13" value="Botão de compra" style="rounded=1;whiteSpace=wrap;html=1;" vertex="1" parent="1">
          <mxGeometry x="250" y="110" width="80" height="40" as="geometry" />
        </mxCell>
        <mxCell id="grPSCO9Au6a3i4jl9AI7-14" value="ainda precisa fazer o script de adicionar no carrinho" style="text;html=1;align=center;verticalAlign=middle;whiteSpace=wrap;rounded=0;" vertex="1" parent="1">
          <mxGeometry x="245" y="160" width="90" height="80" as="geometry" />
        </mxCell>
        <mxCell id="grPSCO9Au6a3i4jl9AI7-19" value="" style="edgeStyle=none;curved=1;rounded=0;orthogonalLoop=1;jettySize=auto;html=1;fontSize=12;startSize=8;endSize=8;" edge="1" parent="1" source="grPSCO9Au6a3i4jl9AI7-16" target="grPSCO9Au6a3i4jl9AI7-18">
          <mxGeometry relative="1" as="geometry" />
        </mxCell>
        <mxCell id="grPSCO9Au6a3i4jl9AI7-16" value="Menu do botão do carrinho" style="rounded=0;whiteSpace=wrap;html=1;" vertex="1" parent="1">
          <mxGeometry x="60" y="290" width="120" height="60" as="geometry" />
        </mxCell>
        <mxCell id="grPSCO9Au6a3i4jl9AI7-20" style="edgeStyle=none;curved=1;rounded=0;orthogonalLoop=1;jettySize=auto;html=1;fontSize=12;startSize=8;endSize=8;" edge="1" parent="1" source="grPSCO9Au6a3i4jl9AI7-18">
          <mxGeometry relative="1" as="geometry">
            <mxPoint x="290" y="400" as="targetPoint" />
          </mxGeometry>
        </mxCell>
        <mxCell id="grPSCO9Au6a3i4jl9AI7-18" value="Arrumar o menu com o css" style="whiteSpace=wrap;html=1;rounded=0;" vertex="1" parent="1">
          <mxGeometry x="230" y="290" width="120" height="60" as="geometry" />
        </mxCell>
        <mxCell id="grPSCO9Au6a3i4jl9AI7-22" style="edgeStyle=none;curved=1;rounded=0;orthogonalLoop=1;jettySize=auto;html=1;fontSize=12;startSize=8;endSize=8;" edge="1" parent="1" source="grPSCO9Au6a3i4jl9AI7-21">
          <mxGeometry relative="1" as="geometry">
            <mxPoint x="380" y="425" as="targetPoint" />
          </mxGeometry>
        </mxCell>
        <mxCell id="grPSCO9Au6a3i4jl9AI7-21" value="Fazer o script de adicionar no carrinho" style="rounded=1;whiteSpace=wrap;html=1;" vertex="1" parent="1">
          <mxGeometry x="240" y="400" width="100" height="50" as="geometry" />
        </mxCell>
        <mxCell id="grPSCO9Au6a3i4jl9AI7-23" value="Fazer os cálculos dos preços" style="rounded=1;whiteSpace=wrap;html=1;" vertex="1" parent="1">
          <mxGeometry x="380" y="395" width="120" height="60" as="geometry" />
        </mxCell>
      </root>
    </mxGraphModel>
  </diagram>
</mxfile>
